<svg width="560" height="292" viewBox="0 0 560 292" fill="none" xmlns="http://www.w3.org/2000/svg">
<g clip-path="url(#clip0_11_118)">
<rect width="560" height="292" fill="white"/>
<path d="M86.3343 80.0719L77.0097 27.1895C74.8519 14.952 63.1819 6.78088 50.9445 8.93841L23.8959 13.7078C11.6583 15.8656 3.487 27.5354 5.64482 39.7731L14.9694 92.6555L86.3343 80.0719Z" fill="#303030" stroke="#303030" stroke-width="3"/>
<path d="M472.748 80.0719L482.072 27.1895C484.23 14.952 495.9 6.78088 508.138 8.93841L535.186 13.7078C547.424 15.8656 555.595 27.5354 553.437 39.7731L544.113 92.6555L472.748 80.0719Z" fill="white" stroke="#303030" stroke-width="3"/>
<rect x="534.077" y="75.7909" width="44.6457" height="46.8542" rx="17" transform="rotate(-170 534.077 75.7909)" fill="#EECFCF"/>
<path d="M89.2424 8.81085C90.5722 3.88021 97.5675 3.8802 98.8974 8.81084L111.885 56.9649C112.742 60.1424 110.348 63.2669 107.057 63.2669H81.0823C77.7913 63.2669 75.3978 60.1424 76.2548 56.9649L89.2424 8.81085Z" fill="#A4928B"/>
<path d="M469.839 8.81085C468.509 3.88021 461.514 3.8802 460.184 8.81084L447.197 56.9649C446.34 60.1424 448.733 63.2669 452.024 63.2669H477.999C481.29 63.2669 483.684 60.1424 482.827 56.9649L469.839 8.81085Z" fill="#A4928B"/>
<rect x="17.9839" y="29.6486" width="44.6457" height="46.8542" rx="17" transform="rotate(-10 17.9839 29.6486)" fill="#EECFCF"/>
<path d="M3.05176e-05 115.128C3.05176e-05 76.4681 31.3401 45.1281 70 45.1281H106.387C134.001 45.1281 156.387 67.5138 156.387 95.1281V175.494C156.387 221.886 118.779 259.494 72.3868 259.494H25C11.1929 259.494 3.05176e-05 248.301 3.05176e-05 234.494V115.128Z" fill="#303030"/>
<path d="M560 115.128C560 76.4681 528.66 45.1281 490 45.1281H453.613C425.999 45.1281 403.613 67.5138 403.613 95.1281V175.494C403.613 221.886 441.221 259.494 487.613 259.494H535C548.807 259.494 560 248.301 560 234.494V115.128Z" fill="#303030"/>
<circle cx="13.065" cy="13.065" r="13.065" transform="matrix(1 0 0 -1 354.538 146.171)" fill="#303030"/>
<circle cx="13.065" cy="13.065" r="13.065" transform="matrix(1 0 0 -1 173.346 146.171)" fill="#303030"/>
<rect x="91.9564" y="140.161" width="369.474" height="92.717" rx="46.3585" fill="#EECFCF"/>
<rect x="406.264" y="171.431" width="8.72364" height="18.2371" rx="4" fill="#303030"/>
<rect x="138.354" y="171.431" width="8.72364" height="18.2371" rx="4" fill="#303030"/>
<path d="M240.934 288.651C241.008 290.931 244.229 291.33 244.856 289.137L260.099 235.856C260.437 234.675 259.641 233.472 258.422 233.321L241.389 231.212C240.17 231.062 239.105 232.035 239.145 233.262L240.934 288.651Z" fill="#8BA48B"/>
<path d="M264.047 272.998C264.664 275.194 267.886 274.811 267.971 272.531L269.401 233.977C269.446 232.75 268.385 231.772 267.166 231.917L255.301 233.328C254.082 233.473 253.28 234.673 253.612 235.855L264.047 272.998Z" fill="#8BA48B"/>
<path d="M228.545 271.96C228.283 274.227 231.41 275.094 232.353 273.017L248.298 237.885C248.805 236.767 248.194 235.46 247.011 235.131L235.497 231.938C234.314 231.61 233.117 232.415 232.976 233.635L228.545 271.96Z" fill="#8BA48B"/>
<line x1="222.065" y1="232.619" x2="331.991" y2="232.619" stroke="#303030" stroke-width="3"/>
</g>
<defs>
<clipPath id="clip0_11_118">
<rect width="560" height="292" fill="white"/>
</clipPath>
</defs>
</svg>
